<svg xmlns="http://www.w3.org/2000/svg" viewBox="0 0 900 350"><g fill-rule="evenodd" clip-rule="evenodd"><path fill="#A3A3A3" d="M19.533 94.137l13.51-39.821 6.399 38.399zM213.658 79.205l12.8-35.555 2.133 34.844zM269.122 57.872l2.134-38.399 10.667 37.688zM366.541 37.962l8.533-31.288 4.978 30.576zM676.929 40.095l-13.512-29.866-2.133 36.977zM743.414 63.205L734.17 33.34l-4.977 32.709zM843.678 86.315l-7.111-41.243-7.111 41.243z"/><path fill="#C4C4C4" d="M298.242 104.919l122.186 4.638 155.679-12.611 151.309 10.773 94.929-2.8-8.095 99.736-50.924-2.789-76.172 7.186-27.839 2.27-87.641-1.6-169.846-24.258-66.934 21.023-26.02-3.441zM46.642 131.82l154.943-11.419-4.849 73.241-150.094.719z"/><path fill="#AFAFAF" d="M38.021 79.204l17.244 8.711-5.063 106.571-23.559 9.157 2.845-64.373zM242.783 64.945l18.518 19.527-9.615 125.25-20.606 6.643V131.82zM287.611 46.961l17.228 20.866 4.035 135.219-14.875 6.998-6.388-70.774zM398.684 26.114l25.81 15.092-27.446 168.516-27.329 12.01 10.466-104.124zM543.69 59.117l-28.576 9.866 3.808 145.21 13.567 5.232 12.267-90.923zM701.817 61.782l29.509-8.177 5.689 64.003v92.114l-38.466-1.59zM681.373 216.176l-22.058-4.854-11.959-157.805 25.641-22.023 7.088 100.326zM814.25 204.655l-5.771-119.35 22.754-9.64 5.691 59.562-.713 76.674z"/><path fill="#DDDDDC" d="M.333 201.365L3.178 85.979l34.843-6.775-11.378 124.439zM194.603 212.505l3.766-142.122 44.414-5.438-11.703 151.42zM251.686 209.722l3.215-160.032 32.71-2.729 6.388 163.083zM333.587 215.199L347.682 28.51l51.002-2.396-28.965 195.618zM532.489 219.425L543.69 59.117l41.754 5.828-14.273 152.346zM672.997 31.494l36.005 4.779-5.052 177.92-22.577 1.983zM731.326 53.605l32 7.644v147.104l-26.311 1.369M831.233 75.665l30.934 6-3.2 127.838-22.756 2.398z"/></g><g fill-rule="evenodd" clip-rule="evenodd"><path fill="#9DA1A2" d="M365.119 95.887h5.667v141.838h-5.667z"/><path opacity=".2" fill="#2B2B2B" d="M365.119 95.887h5.667v17.934h-5.667z"/><path fill="#C4C4C4" d="M389.829 71.532l-22.044-16.209-22.043 16.209 4.722 7.955 2.033 5.555-4.978 2.844 6.045 9.244 5.689-4.043.356 8.665h16.354l.488-8.665 5.557 4.043 6.043-9.244-4.976-2.844 1.898-5.021z"/><path fill="#ECECEB" d="M367.785 55.323l-22.043 16.209 6.755 13.51-4.978 2.844 6.045 9.244 4.978-2.488 1.067 7.11h8.176z"/><path fill="#737373" d="M355.652 76.954h9.733v9.31l-3.732-4.655zM380.185 76.954h-9.733v9.31l3.467-4.655zM367.252 91.22h-2.133l2.133-4.8M368.652 91.22h2.134l-2.134-4.8"/><path opacity=".2" fill="#2B2B2B" d="M375.963 101.752l1.066-7.11 4.979 2.488-7.289-6.976zM353.564 97.13l4.978-2.488 1.067 7.11 1.31-11.598zM355.186 83.42l-9.444-11.888 6.755 13.51zM383.075 85.042l6.754-13.51-9.711 11.822z"/><path fill="#858686" d="M380.185 76.954l-6.933 2.8-2.8 6.51zM355.652 76.954l6.4 2.8 3.333 6.51z"/><g><path fill="#9DA1A2" d="M532.1343324 238.9179823l31.6368949-192.5927692 5.5921956.9186207L537.726528 239.836603z"/><path opacity=".2" fill="#2B2B2B" d="M560.8194592 64.0202472l2.90547-17.698258 5.5912088.917892-2.90547 17.698258z"/><path fill="#C4C4C4" d="M592.057 26.297L572.931 6.733l-24.378 12.424 3.371 8.615 1.107 5.812-5.372 2 4.466 10.101 6.269-3.069-1.052 8.609 8.07 1.324 8.068 1.324 1.887-8.471 4.826 4.889 7.463-8.142-4.452-3.613 2.687-4.648z"/><path fill="#ECECEB" d="M572.931 6.733l-24.378 12.424 4.478 14.427-5.372 2 4.466 10.101 5.316-1.649-.099 7.189 8.07 1.324z"/><path fill="#737373" d="M557.454 26.114l9.606 1.576-1.509 9.187-2.929-5.199zM581.663 30.087l-9.604-1.577-1.507 9.187 4.174-4.032zM566.591 42.069l-2.105-.345 2.883-4.39M567.971 42.297l2.106.345-1.326-5.082"/><path opacity=".2" fill="#2B2B2B" d="M573.48 53.873l2.203-6.843 4.51 3.261-6.062-8.065zM552.125 45.685l5.316-1.649-.099 7.189 3.172-11.234zM555.947 32.419l-7.394-13.262 4.478 14.427zM583.204 38.536l8.853-12.239-11.496 10.094z"/><path fill="#858686" d="M581.663 30.087l-7.295 1.639-3.816 5.971zM557.454 26.114l5.862 3.799 2.235 6.964z"/></g><g><path fill="#9DA1A2" d="M318.1166113 90.0471469l5.5360923-1.2104712 30.2965968 138.5615422-5.5360923 1.2104712z"/><path opacity=".2" fill="#2B2B2B" d="M318.1277813 90.0454671l5.5360923-1.2110379 3.8324958 17.5197246-5.5360923 1.2110379z"/><path fill="#C4C4C4" d="M337.069 60.967l-24.996-11.126-18.074 20.542 6.312 6.763 3.172 4.993-4.255 3.842 7.879 7.739 4.694-5.165 2.198 8.391 7.988-1.746 7.99-1.747-1.373-8.57 6.29 2.763 3.931-10.32-5.47-1.717.784-5.311z"/><path fill="#ECECEB" d="M312.073 49.841l-18.074 20.542 9.484 11.756-4.255 3.842 7.879 7.739 4.331-3.494 2.561 6.72 7.988-1.746z"/><path fill="#737373" d="M304.839 73.563l9.509-2.077 1.988 9.095-4.641-3.751zM328.805 68.325l-9.508 2.079 1.989 9.094 2.392-5.288zM319.218 85.023l-2.085.456 1.06-5.144M320.585 84.724l2.084-.455-3.109-4.233"/><path opacity=".2" fill="#2B2B2B" d="M329.977 93.453l-.477-7.175 5.394 1.368-8.61-5.259zM307.107 93.72l4.331-3.494 2.561 6.72-1.196-11.612zM305.764 79.98l-11.765-9.597 9.484 11.756zM333.355 75.609l3.714-14.642-6.963 13.624z"/><path fill="#858686" d="M328.805 68.325l-6.175 4.215-1.344 6.958zM304.839 73.563l6.85 1.369 4.647 5.649z"/></g></g><g fill-rule="evenodd" clip-rule="evenodd"><path opacity=".1" fill="#2B2B2B" d="M340.765 238.666L478.359 213.6l103.996 33.598L454.36 262.13z"/><path fill="#858686" d="M428.901 29.873L405.228 17.34h-5.847l-7.243 3.556 13.09 18.843z"/><path fill="#737373" d="M405.228 17.34V-.081l-13.09 20.977zM412.934 184.8h-13.553V67.827h13.553l2.105 47.684z"/><path fill="#858686" d="M426.488 184.8h-13.554V67.827h13.554l2.413 47.684z"/><path fill="#737373" d="M440.044 184.8h-13.556V67.827h13.556l2.575 50.537z"/><path fill="#858686" d="M453.597 184.8h-13.553V67.827h13.553l1.204 50.537z"/><path fill="#737373" d="M467.15 184.8h-13.553V67.827h13.553l2.133 54.944z"/><path fill="#858686" d="M480.705 184.8H467.15V67.827h13.555l1.669 54.944z"/><path fill="#737373" d="M494.259 184.8h-13.554V67.827h13.554l1.482 58.236z"/><path fill="#858686" d="M507.813 184.8h-13.554V67.827h13.554l3.244 56.097z"/><path fill="#737373" d="M507.813 67.827h13.554v116.972h-13.554z"/><path opacity=".1" d="M521.367 85.604L399.381 73.871v-6.044h121.986z"/><path fill="#858686" d="M392.138 46.673v23.288l135.908 6.399V46.673z"/><path fill="#737373" d="M460.093 44.539l-67.955 2.134v8.176l70.088 6.4 65.82-7.466v-7.11z"/><path fill="#9DA1A2" d="M375.43 49.872l84.663 4.267 5.334-19.999v-20z"/><path fill="#737373" d="M491.286 29.873l23.672-12.533h5.846l7.242 3.556-13.088 18.843z"/><path fill="#858686" d="M514.958 17.34V-.081l13.088 20.977zM544.756 46.673l-84.663 7.466 5.334-39.999z"/><path fill="#737373" d="M499.958 184.8h-79.136l-1.908 50.455 83.511 4.449z"/><path fill="#858686" d="M426.494 244.131l-47.865.044 6.267-77.174h41.598z"/><path fill="#737373" d="M411.295 226.332h-11.2l-3.047-45.1 14.247 3.568z"/><path fill="#5B5B5B" d="M378.629 244.175l21.466-17.843h11.2l11.3 12.483 3.899 5.316z"/><path fill="#9DA1A2" d="M411.295 184.8l15.199-17.799h-41.598l12.152 14.231z"/><path fill="#858686" d="M540.046 244.888l-45.732-.757v-77.13h41.598z"/><path fill="#737373" d="M520.712 226.332l-14.976 4.422 3.777-45.954 12.701-1.757z"/><path fill="#5B5B5B" d="M494.314 244.131l.246-4.899 11.176-8.478 14.976-4.422 19.334 18.556z"/><path fill="#9DA1A2" d="M522.214 183.043l13.698-16.042h-41.598l15.199 17.799z"/><path fill="#C4C4C4" d="M384.896 167.001l14.485-7.954 21.537 2.533 5.576 5.421zM535.912 167.001l-14.545-7.954-18.942 2.533-8.111 5.421z"/></g><g fill-rule="evenodd" clip-rule="evenodd"><path fill="#5A753D" d="M437.017 113.814v10.11l-3.375 6.948-25.24 7.124-25.239 1.711 41.98-35.514z"/><path fill="#738D56" d="M433.642 130.872v8.835l-3.983 11.3-19.569-11.3-25.194 27.294-1.733-27.294z"/><path fill="#A0CF7E" d="M384.896 167.001l23.87-31.774 20.893 15.78v8.04l-3.165 7.954-13.318-6.733z"/><path fill="#446125" d="M437.294 112.413l12.178 5.951-2.579 23.812-6.849 21.462-6.402 3.363h-7.148z"/><path fill="#709D53" d="M449.472 118.364l11.968 7.95-1.065 17.467-2.816 15.266-8.799 3.977-8.716.614z"/><path fill="#446125" d="M461.44 126.314l16.853 14.687 1.659 11.646-2.595 10.991-19.798-4.591z"/><path fill="#709D53" d="M478.293 141.001l12.993 10.112 3.028 15.888h-9.822l-7.135-3.363z"/><path fill="#738D56" d="M494.314 167.001l-4.741-14.354 7.586 2.467 5.266 6.466z"/><path fill="#99C26D" d="M424.494 104.67l77.931 56.91 18.942-2.533 4.457.777-1.422-35.9-19.377-20.667-60.998-12.938z"/><path fill="#C4937D" d="M460.669 114.74l13.067 11.323 12.053-7.699-12.053-2.638z"/><path fill="#FFE6D6" d="M453.029 72.051l-6.669-3.335-3.741 11.526 5.206 2.371 3.78-4.031zM502.658 85.604l6.118-1.132.89 10.902-5.603 1.059-1.795-4.962z"/><path fill="#C4937D" d="M447.072 79.827l2.4-5.6-2.579-1.067zM505.114 93.871l-.267-5.334 2.755-.622z"/><path fill="#474747" d="M457.738 62.494l-13.711 27.825 6.856 5.055 5.077-17.148zM501.291 76.716l3.734 26.541-7.441 1.413 1.219-14.444z"/><path fill="#FFE6D6" d="M457.738 62.494l-5.055 24.245-3.3 24.553 44.175 6.489 5.089-21.131 2.644-19.934-18.917-8.889z"/><path fill="#F5CAB3" d="M458.892 76.716l17.467 5.155 20.266 3.733-18.485 6.624-8.857-1.91z"/><path fill="#CCA997" d="M452.682 86.738l-5.434 26.065 48.333 6.974 2.003-11.951 1.063-11.176z"/><path fill="#FFF1E8" d="M479.952 82.533l-1.763 9.705-8.906-1.919 1.555-10.077z"/><path fill="#C4937D" d="M460.225 95.47l12.934.267 10.133 5.733-1.734 3.2-9.465-6.666-11.734.933zM469.283 90.319l3.666 4.218 5.24-2.299z"/><path fill="#474747" d="M459.96 70.005l-2.401 6.533 18.8 9.2 20.8.266-.534-8.933-19.866 3.171z"/><path fill="#B8C745" d="M497.584 53.517l-15.853 11.267-2.926-18.911-12.411 12.941 32.713 12.735z"/><path fill="#E8F078" d="M460.093 56.361l8.311-18.844 5.332 23.999 16.266-15.466.709 22.231 21.068-12.652-8.533 17.531-6.621-1.611-13.874-5.011-15.236-6.088z"/><path fill="#D9E354" d="M457.738 62.494l2.355-6.133 43.153 16.799-1.955 3.556z"/><path fill="#B8C745" d="M468.404 37.517l-2.977-7.911 6.332 1.4 5 4.067zM474.617 39.739l4.188 6.134 5.82-3.867-4.673-2.267zM490.002 46.05l-2.737-7.202 4.946.891 4.948 3.067zM494.259 47.872l3.325 5.645 6.649-3.271-4.987-2.374zM511.779 55.629l-1.238-5.939 4.417 1.782 3.964 3.346z"/><path fill="#E8F078" d="M465.427 29.606l8.309-2.666 3.023 8.133zM474.617 39.739l6.088-4.666 3.92 6.933zM487.265 38.848l7.76-3.775 2.134 7.733zM494.259 47.872l7.044-5.066 2.93 7.44zM510.541 49.69l8.381-3.64v8.768z"/><path fill="#6F7173" d="M459.96 70.005l16.399 15.733 20.266-8.667-21.067.933z"/><path fill="#5A753D" d="M524.402 123.924l-12.31 8.103-9.667 29.553 18.942-2.533 8.396 4.591z"/><path fill="#738D56" d="M512.092 132.027l17.671 31.611-27.338-2.058 1.808-14.953z"/><path fill="#BFDB8E" d="M512.092 132.027l-14.933-9.256-18.866 21.01 24.132 17.799z"/><path fill="#C4937D" d="M497.159 122.771l8.577-2.994v-11.095l-5.601 7.044zM489.573 135.227l2.638 12.261 10.447-15.396-5.499-9.321-4.4 5.232z"/><path fill="#F5CAB3" d="M505.736 108.682l-7.089-12.032-.999 7.543-1.193 8.995 4.641-.775z"/><path fill="#FFE6D6" d="M485.789 118.364l10.666-5.176 9.281-4.506-16.163 26.545z"/><path fill="#709D53" d="M456.626 208.132h-30.132l-11.455-12.266 11.449-14.634 12.272-4.965zM476.359 176.267l17.9 4.965v26.9h-37.633z"/><path fill="#446125" d="M437.983 178.74l18.643 29.392 20.275-29.796-22.1-4.869z"/><path fill="#5A753D" d="M426.494 167.001l31.065-7.954 36.755 7.954-.055 14.231-38.299-6.387-29.472 6.387z"/><path fill="#99C26D" d="M457.559 159.047l-1.599 15.798 20.941 3.491.47-15.002z"/><path fill="#5A753D" d="M460.401 165.068h12.827l.732 8.933-13.559-.934zM444.424 188.894l-2.867 28.305-19.996-.667-6.522-20.666 13.322-1.466zM467.922 191.532l13.168 5.098 13.169 2.302v15.734l-23.443 2.533z"/><path fill="#A0CF7E" d="M415.039 195.866l15.855 8.5 13.53-15.472zM467.922 191.532l12.03 14.057 14.307-6.657z"/><path fill="#446125" d="M416.628 217.199l29.332.934-1.24 5.517-16.493 30.347-12.105-32.619zM468.754 218.666l27.007-4.667.082 5.338-1.603 24.839-6.416 11.576-19.509-31.74z"/><path fill="#5A753D" d="M429.659 233.33l-13.965 10.845.428 3.955 13.537 7.868 14.765-8.267-.775-2.744zM487.344 233.711l-12.577 10.108-3.224 3.667 16.281 8.266 14.654-7.866-2.073-3.655z"/><path fill="#709D53" d="M448.227 217.199l-34.399-2 2.294 6.181 28.598 2.27zM468.313 224.013l27.53-4.676 2.248-7.085-33.332 4.947zM410.362 247.731l19.297 8.267 17.764-7.868-3.772-3.141-13.92 6.242-14.037-7.056zM500.405 244.231l-12.581 6.492-13.057-6.904-5.89 4.734 18.947 7.199 17.009-7.567z"/><path fill="#FFE6D6" d="M388.969 161.58l26.07-6.466 5.389 11.887z"/><path fill="#F5CAB3" d="M388.969 161.58l8.079 14.687h16.78l6.6-9.266z"/></g><g fill-rule="evenodd" clip-rule="evenodd"><path opacity=".1" fill="#2B2B2B" d="M688.031 260.397l174.136 21.263 37.333-30.952-111.925-18.452z"/><path fill="#6F7173" d="M825.544 263.819l9.957-32.194v-40.71l-76.798-6.736-81.235 3.378 14.928 70.125z"/><path fill="#4F5253" d="M825.544 267.941l47.643-13.485 3.201-70.277h-20.532l-20.355 6.736z"/><path fill="#9DA1A2" d="M835.501 190.915l4.622-18.143-76.442-25.886-86.213 27.181v13.49l81.328-.49z"/><path fill="#6F7173" d="M763.681 146.886l112.707 25.886-16.355 12.941-24.532 5.202-.178-14.765z"/><path fill="#CECECD" d="M835.323 176.15l-157.855-2.083v13.49l158.033 3.358 4.622-7.892z"/><path fill="#9DA1A2" d="M835.501 190.915l-.178-14.765 41.065-3.378v11.407z"/><path fill="#CECECD" d="M677.468 187.557l10.563 72.84 137.513 7.544 8.366-30.509 1.591-46.517-158.033-3.358zm124.967 68.507l-94.929-11.04-13.512-48.352 123.019 9.861-14.578 49.531z"/><path fill="#858686" d="M835.501 190.915l-9.957 77.025 50.844-11.326v-72.435l-40.887 6.736zm30.043 56.46l-25.42 6.4 3.021-52.62 25.598-2.133-3.199 48.353z"/><path opacity=".2" fill="#2B2B2B" d="M736.127 222.297l8 8.021 34.664-8.021-5.909-32.62-20.757 7.636z"/><path fill="#A3A3A3" d="M764.328 183.239l-3.848 31.604-29.154-.147 6.935 6.192 30.977-1.684 3.644-29.527z"/><path fill="#737373" d="M761.547 216.966l6.578 3.479-31.998 1.852-4.801-7.601 16.5-1.096z"/><path fill="#ECECEB" d="M731.326 214.696l5.333-37.287 27.669 5.83-2.781 33.727z"/><path fill="#6F7173" d="M740.928 193.333l9.777-6.756 6.4 8.713-8.178 5.332 1.601 7.999-7.822-.889 3.021-7.643z"/></g><g fill-rule="evenodd" clip-rule="evenodd"><path opacity=".1" fill="#2B2B2B" d="M553.02 292.684l84.38-13.777 83.805 24.683-94.137 19.517z"/><path fill="#5A753D" d="M629.7728793 198.3575917l40.5255603-66.4426173 20.4179429 12.4535819-40.5255603 66.4426173z"/><path fill="#738D56" d="M690.529 136.546l-6.617-4.034-3.15-6.042 31.403-52.604 6.712 1.306 6.618 4.035z"/><path fill="#99C26D" d="M677.2790286 128.4625602L712.242004 71.122206l6.6160962 4.0341294-34.9629754 57.3403542z"/><path fill="#5A753D" d="M724.249 81.249l-13.233-8.069-1.094-9.966 12.741 5.751 10.947 8.692z"/><path fill="#A0CF7E" d="M709.922 63.214l16.726-.784 6.962 15.227z"/><path fill="#709D53" d="M648.398 120.374l62.568 38.153 5.625-9.227-21.072-12.85-11.607-3.938-8.814-8.513-21.074-12.851z"/><path fill="#A0CF7E" d="M675.098 123.998l20.421 12.452-21.464 12.23z"/><path fill="#35785D" d="M618.314 265.898l1.29 24.107-37.596-3.252 9.281-26.787zM645.818 272.402l-.956 22.004 37.694-1.531-9.376-24.108z"/><path fill="#54B08B" d="M590.14 211.519l-11.286 42.899 18.796 20.568 8.372-25.05 4.496-19.83-7.845-10.899zM628.934 246.907l5.979 26.644 30.614 8.657-5.236-27.982-8.893-21.382-12.324 4.433z"/><path fill="#3F8F6F" d="M610.518 230.106l10.045 7.171 8.371 9.63L624.198 268l-26.548 6.986zM673.18 219.207l12.149 44.777-19.802 18.224-14.129-49.364 8.893-7.127z"/><path fill="#709D53" d="M590.14 211.519l20.376 18.588 18.418 14.891 22.464-12.154 21.782-13.637-42.524-5.477z"/><path fill="#5A753D" d="M618.314 214.189l-7.796 15.917 18.416 16.801 22.464-14.063-9.988-16.578-10.754-2.536z"/><path fill="#709D53" d="M612.151 145.538l-19.332 46.413 37.837 6.318 42.141 3.657 12.532-49.587z"/><path fill="#D9E354" d="M629.774 92.643l-11.701-5.07-3.824-5.071-1.914-5.07v-15.12l-11.29 18.133 6.124 21.742 4.255 12.837z"/><path fill="#B8C745" d="M620.646 103.777l-19.601-23.332 3.904 22.353 6.475 12.226z"/><path fill="#E8F078" d="M618.073 87.573l-17.028-7.128 11.29-3.013z"/><path fill="#3F8F6F" d="M685.329 152.339l-7.988-35.804-4.927-11.742-6.336-9.598-8.204-5.709-6.698-9.041-21.402 12.198-11.125 9.544-7.226 12.837-8.75 22.722 17.506 11.943 19.23 18.254 25.352-10.915z"/><path fill="#35785D" d="M685.329 152.339l-18.081-7.557-26.966 18.8-26.487-31.257-11.122 5.421 36.736 30.197zM651.176 80.445l-8.036 20.521 11.469-1.219 11.469-4.553z"/><path fill="#F5CAB3" d="M660.291 123.764l3.705-.412 1.756 3.608 2.095 18.072-13.238 10.265V139.65z"/><path fill="#C4937D" d="M625.505 148.607l17.635 2.324 11.469 4.366-15.2 12.646z"/><path fill="#FFE6D6" d="M660.291 123.764l-5.682 31.533-42.458-9.759 2.659-21.343 2.362-4.229z"/><path fill="#C4937D" d="M619.223 136.606l29.657 3.106-1.721 2.982-27.936-3.049zM665.752 126.96l-34.856 9.266-16.086-12.032.6-5.243 17.589 10.141 32.033-7.337z"/><path fill="#54B08B" d="M677.341 116.536l-46.445 19.69-16.647-21.792 3.06-14.687 12.82-4.553 13.011 5.772 22.938-5.772 8.344 8.259z"/><path fill="#72C9A6" d="M643.14 100.966l-12.244 35.26-19.472-21.202 5.885-15.277 12.465-7.104z"/><path fill="#2B2B2B" d="M624.484 108.094l13.535 7.617 19.757-5.848 1.724 6.673-24.426 7.658-12.741-10.456z"/><path fill="#D9E354" d="M666.078 95.194l9.971-1.407 6.124-3.974 3.156-3.974 4.113-14.913 3.637 20.091-10.523 18.846-5.215 6.673-12.199-8.442z"/><path fill="#B8C745" d="M665.142 108.094l27.937-17.077-9.758 20.568-5.98 4.951z"/><path fill="#E8F078" d="M685.329 85.839l7.75 5.178-17.03 2.77z"/><path fill="#5A753D" d="M592.819 191.951l-2.679 19.568 28.18 2.609 13.34.061 9.75 2.076 31.77 2.942-.383-17.281-30.264-3.775-10.873.395-11.457-3.178z"/><path fill="#99C26D" d="M620.179 195.533l-1.865 18.656 23.096 2.077 1.123-18.115z"/><path fill="#5A753D" d="M625.505 200.126l11.608.648-2.009 10.401-10.906-2.154z"/><path fill="#3F8F6F" d="M574.258 288.857l23.392-13.871 26.548 17.889-6.506 6.506-42.332-1.532zM639.074 295.938l26.453-13.73 17.029 10.667 5.74 3.063-1.149 7.652-39.918 1.34z"/><path fill="#54B08B" d="M668.364 294.406l18.783 9.184-17.03 8.61-1.753-8.897zM617.692 299.381l-21.811-12.245-3.684 9.852-2.057 9.855z"/><path fill="#72C9A6" d="M595.881 287.136l-20.521 10.713 14.78 8.994zM668.364 294.406l-21.135 10.524 22.888 7.27z"/><path fill="#35785D" d="M608.086 155.297l-16.363-.923-12.869 3.901-3.494 30.301 10.26 5.379 5.834 7.971zM668.364 164.868l18.783 2.704 16.263 5.552-10.331 39.013h-10.523l-9.376 7.07-7.653-32.714z"/><path fill="#F5CAB3" d="M620.646 172.161l-12.56-16.864-5.219 8.285-.194 7.892 8.173 1.65z"/><path fill="#FFE6D6" d="M608.086 155.297l-5.413-1.027-5.023 2.09 5.023 15.114z"/><path fill="#72C9A6" d="M612.151 145.538l-9.478-7.792-22.864 4.948-.955 15.581 18.796-1.914 10.436-1.064zM685.329 152.339l21.238 5.936-3.157 14.849-35.046-8.256 1.753-7.36z"/><path fill="#3F8F6F" d="M679.11 205.899l-13.583-19.406-16.647.206-17.22 3.695-11.014 4.135 52.534 24.678z"/><path fill="#54B08B" d="M585.62 189.768l17.053-18.294 43.122 1.65 3.085 9.615-1.651 7.029-55.775 12.158z"/><path fill="#F5CAB3" d="M645.795 173.124l19.732 13.369-18.298 3.275z"/><path fill="#72C9A6" d="M665.527 186.493l7.653 32.714 19.899-7.07zM575.36 188.576l27.313-17.102-11.219 30.452z"/><path fill="#B8C745" d="M693.079 212.137l-4.783 16.025-15.116-8.955zM591.454 201.926l-15.193 3.654-.901-17.004z"/></g><g fill-rule="evenodd" clip-rule="evenodd"><path opacity=".1" fill="#2B2B2B" d="M27.802 275.954l89.414-17.217 88.304 17.772-91.635 22.771z"/><path fill="#5C753A" d="M146.466 54.21l-10.367-12.899v16.281zM80.007 59.777L76.49 49.502l-5.554.833-3.888 7.749z"/><path fill="#709D53" d="M128.139 56.399l18.327-2.189-9.163 15.332-6.017-5.183zM85.93 58.991l-18.882-.907 12.454 15.372 4.948-6.505z"/><path fill="#3F8F6F" d="M161.831 115.279l12.727-14.682-.139 13.12zM64.869 122.679l-13.001-12.711.926 12.854zM88.596 61.859L76.305 80.65v36.098l13.928 9.3 24.948 8.761 23.695-10.576 7.59-12.483-5.369-36.655-14.925-15.318z"/><path fill="#FFE6D6" d="M131.993 79.454l3.562 41.687-45.322 3.092-1.637-40.546z"/><path fill="#F5CAB3" d="M95.927 90.647l11.427 16.336 9.442-.555 8.104-18.003z"/><path fill="#FFF1E8" d="M106.46 89.84l.894 17.143 9.442-.555-1.615-17.108z"/><path fill="#C4937D" d="M88.596 83.687l22.964 10.291 20.433-14.524z"/><path fill="#72C9A6" d="M108.701 57.592l2.927 15.864-.243 15.864-35.08-8.67 9.625-21.659z"/><path fill="#54B08B" d="M108.701 57.592l19.438-1.193 12.958 18.696-29.712 14.225z"/><path fill="#4F5253" d="M95.927 90.647l10.533-.807.365 6.253zM115.181 89.32l9.719-.895-9.051 6.755zM107.354 106.983l-8.881 8.4 27.699-1.666-9.376-7.289z"/><path fill="#2B2B2B" d="M122.493 96.848c0 1.227-.995 2.221-2.223 2.221-1.226 0-2.221-.994-2.221-2.221 0-1.226.994-2.221 2.221-2.221 1.228 0 2.223.994 2.223 2.221zM104.721 98.375c0 1.228-.994 2.222-2.221 2.222s-2.221-.995-2.221-2.222c0-1.227.994-2.222 2.221-2.222 1.226 0 2.221.995 2.221 2.222zM107.354 106.983l4.968 3.923 4.474-4.478z"/><path fill="#C4937D" d="M126.172 113.717l-13.85 3.124-13.849-1.458z"/><path fill="#35785D" d="M90.233 124.233l25.687 16.314 19.635-19.406z"/><path fill="#3F8F6F" d="M79.266 122.822l-1.48 17.375-1.454 33.825 1.454 19.368 39.01-2.963 2.086-25.708-2.962-26.681z"/><path fill="#35785D" d="M146.466 118.541l-30.546 19.497.876 52.389 38.463-2.592-.368-17.978-2.872-33.506z"/><path fill="#72C9A6" d="M76.305 116.748l39.615 21.29-39.587 35.984-3.685-35.823z"/><path fill="#54B08B" d="M115.92 138.038l38.971 31.819 1.386-36.818-9.811-21.289z"/><path fill="#3F8F6F" d="M77.786 193.39l-23.604 75.899 41.745 1.411 20.869-54.93v-25.343zM116.796 215.77l24.301 54.491 39.39-4.881-25.228-77.545-38.463 2.592z"/><path fill="#54B08B" d="M64.869 234.921l23.839-8.948 16.582 20.083-26.949 8.863zM129.902 245.162l18.23-18.08 22.445 7.839-14.3 17.832z"/><path fill="#35785D" d="M72.648 237.356l14.856-3.519 6.526 10.207-12.219 6.086zM140.542 241.243l8.191-9.719 14.44 8.142-10.691 7.585z"/><path fill="#72C9A6" d="M54.182 269.289l24.159-14.37L95.927 270.7l-22.214 8.147zM141.097 270.261l15.18-17.508 24.21 12.627-16.434 13.467z"/><path fill="#35785D" d="M70.936 279.703l2.777 5.692 22.214-6.665v-8.03l-22.214 5.926zM161.831 279.703l2.591 5.692 16.065-10.899v-9.116l-16.434 11.246z"/><path fill="#3F8F6F" d="M73.713 276.626v8.769l-19.531-7.96v-8.146zM141.097 270.261l22.956 6.365.369 8.769-23.325-6.665z"/><path fill="#4F5253" d="M112.126 223.045l-28.047 13.131L54.09 202.09l28.879-34.038 29.157 11.523z"/><path fill="#858686" d="M112.404 216.012l-26.469 8.719-12.963-22.633 12.113-22.6 27.319 7.652z"/><path fill="#4F5253" d="M121.845 223.045l28.046 13.131 29.989-34.086-28.879-34.038-29.156 11.523z"/><path fill="#858686" d="M121.568 216.012l26.468 8.719 12.963-22.633-12.113-22.6-27.318 7.652z"/><path fill="#8F8F8F" d="M121.845 290.948h-4.86l-3.887-2.221.111-107.073 3.776-2.079h4.86z"/><path fill="#9DA1A2" d="M112.126 179.575h4.859v111.373h-4.859z"/><path opacity=".2" fill="#2B2B2B" d="M116.985 201.867l-54.148 10.165-8.726-9.919 6.43-7.627 48.16-18.96 55.721 6.144 7.396 10.917 8.042 9.526-9.95 11.308z"/><path fill="#709D53" d="M73.713 139.092H62.421l-13.885 2.952-6.479 28.138 20.456 1.202 20.456-3.332zM154.149 133.608l14.125-2.652 12.995 1.899 9.811 31.864-20.503 2.569-19.715-.72z"/><path fill="#5A753D" d="M191.08 164.719l-33.044 31.653-6.179-15.826-.995-13.978zM42.057 170.182l33.985 26.19 4.89-14.161 2.037-14.159z"/><path fill="#709D53" d="M150.862 166.568l-16.429 4.816-2.44 11.893 2.44 11.209 23.603 1.886zM82.969 168.052l10.997-2.659 6.312 11.52 1.099 9.659-25.335 9.8z"/><path fill="#99C26D" d="M134.433 171.384l-12.588 1.643-5.569 11.672.52 6.773 17.637 3.014z"/><path fill="#738D56" d="M116.796 191.472l-15.824 4.9.405-9.8 20.468-13.545z"/><path fill="#BFDB8E" d="M101.377 186.572l10.749-6.997 3.055-9.393 1.095-10.856-22.31 6.067z"/><path fill="#709D53" d="M116.276 159.326l18.157 12.058-22.307 8.191z"/><path fill="#A0CF7E" d="M73.713 139.092l-25.177 2.952 4.258-19.222 23.511-6.074zM146.466 111.75l27.953 1.967 6.85 19.138-27.12.753z"/><path fill="#446125" d="M191.08 164.719l-5.553 24.597-27.491 7.056zM42.057 170.182l8.145 24.304 25.84 1.886z"/></g><g fill-rule="evenodd" clip-rule="evenodd"><path opacity=".1" fill="#2B2B2B" d="M211.55 320.157l66.08-10.501 56.604 12.55-58.909 16.392zM288.644 338.598l61.47-11.013 56.603 11.781-59.165 9.989z"/><path fill="#F5CAB3" d="M339.876 339.639l7.129 1.442 6.325-2.641-1.576-1.254-7.767-6.169-2.512 3.467z"/><path fill="#C4937D" d="M347.005 341.081l7.131-2.001v-3.844z"/><path fill="#FFE6D6" d="M335.373 332.03l-5.026 5.051-2.738 3.394 9.065.606 3.202-1.442-2.222-4.978z"/><path fill="#C4937D" d="M336.674 341.081l-6.327-4-3.982 4zM348.097 322.396l-8.221 17.243-1.222-18.489z"/><path fill="#5A753D" d="M339.876 322.396h14.26l-2.211-10.134-12.049 1.601-1.222 5.333z"/><path fill="#F5CAB3" d="M329.672 322.396l10.204 17.243v-17.243l-4.088-1.246zM308.874 290.421l9.274 11.882 2.35-11.882zM360.895 281.419l-2.731 11.288-5.133-8.354z"/><path fill="#3F8F6F" d="M315.165 270.131l-10.133 19.444 14.204 3.132 2.329-10.666v-10.64zM351.03 267.598l13.556 10.712-8.482 7.144-3.073-7.144z"/><path fill="#709D53" d="M339.876 313.863v8.533h-15.111l2.489-8.533z"/><path fill="#FFE6D6" d="M321.565 265.154l-6.4 4.977 6.394 2.038 19.272 8.45 10.199-13.021z"/><path fill="#E8F078" d="M322.898 233.465l-6.266-1.565-7.758-7.283 28.815-12.084 15.342 12.084-12.2 4.981z"/><path fill="#D9E354" d="M322.898 233.465l-14.024-8.848-3.442 8.848 4.667 13.231 11.466 18.458 1.396-17.689z"/><path fill="#B8C745" d="M305.432 233.465l-.4 22.266 16.533 9.423zM353.031 224.617l8.266 6.137-3.084 12.545-3.849-9.834z"/><path fill="#709D53" d="M292.889 319.318l-12.185-3.162 10.169-3.249 2.293 3.164z"/><path fill="#F5CAB3" d="M301.725 308.961l4.756 4.335-6.274 4.324-9.334-4.713 3.627-2.702z"/><path fill="#99C26D" d="M306.481 313.296l7.51 5.109-21.102.913-2.016-6.411z"/><path fill="#728D56" d="M268.884 195.464l9.75 14.27 4.666 11.465 2.727 26.888-22.593-3.156-20.293-5.227-7.596-36.089v-9.748z"/><path fill="#C4937D" d="M287.87 169.195l-3.668 20.763-8.215-8.495-2.448-7.831 7.224-4.831z"/><path fill="#FFE6D6" d="M304.117 117.667l9.165 43.657-39.743 12.308-14.45-24.437 6.134-25.271 17.801-4.254z"/><path fill="#FFDBC7" d="M274.07 112.413l2.254-4.446 7.125-3.774 6.555.897 5.019 4.663-10.651 2.618z"/><path fill="#F5CAB3" d="M284.457 126.063l2.473 2.813 3.077 17.751-8.961-13.355-6.512-.466zM291.883 128.038l8.027-5.267-5.788 15.225zM265.223 123.924l8.316 49.708-10.357-12.88-4.093-11.557 1.123-13.728z"/><path fill="#99C26D" d="M227.192 118.364l25.215-4.886 21.204-1.008 10.802-1.37 10.388-1.318 3.655-1.1 3.778.156 1.883 8.829-38.894 6.257-9.457 3.641-10.779-.385-8.635 3.692-10.025-.69z"/><path fill="#5A753D" d="M282.954 116.135l3.828-5.336 5.412 3.924-3.97 5.501z"/><path fill="#54B08B" d="M227.192 118.364l2.513-24.262 49.988.29 4.136 4.803-.38 4.998-9.379 8.22z"/><path fill="#3F8F6F" d="M279.693 94.392l18.896.263 3.645 14.183-7.211.915-11.574-5.56z"/><path fill="#067863" d="M274.534 132.806l3.496-5.183 6.427-1.56zM291.883 128.038l2.926-4.234 5.101-1.033z"/><path fill="#FFF1E8" d="M291.883 128.038l-4.953.838 3.077 17.751 5.765-1.296z"/><path fill="#C4937D" d="M290.007 146.627l3.547 3.018 2.218-4.314z"/><path fill="#3F8F6F" d="M265.223 123.924l-6.134 25.271-10.051-10.672-4.051-11.343z"/><path fill="#54B08B" d="M244.987 127.18l-18.66 3.002-4.004 33.456-2.869 9.21.982 6.56 19.199-11.897 19.454-18.316z"/><path fill="#3F8F6F" d="M259.089 149.195l10.529 17.806-6.714 17.827-8.841 10.119-4.051 11.749-7.229 8.517-13.609-17.001-8.738-18.804z"/><path fill="#54B08B" d="M220.436 179.408l-10.443 5.8-15.39 13.979 19.254 6.405 16.529 8.163 12.397 1.458zM269.618 167.001l3.921 6.631 10.663 16.326-5.702 3.242-9.616 2.264-14.821-.517 6.503-16.611z"/><path fill="#35785D" d="M254.063 194.947l7.812 19.634-1.145 17.319-15.381-9.453-2.566-7.234z"/><path fill="#728D56" d="M286.93 254.418l4.019 16.051-17.41 22.06-34.839-3.021v-31.077l25.954-37.138z"/><path fill="#5A753D" d="M243.141 239.704l42.685 4.47-47.126 14.257z"/><path fill="#99C26D" d="M238.7 289.508l.572 31.845 27.043.485 35.41-12.877-29.758-15.471zM294.382 202.666l18.9 10.758-4.116 10.441-3.734 9.6-17.596-19.851z"/><path fill="#3F8F6F" d="M260.73 231.9l-29.033-8.78-17.84-17.528 28.926 9.621z"/><path fill="#72C9A6" d="M194.603 199.187l27.72-35.549-1.887 15.77z"/><path fill="#728D56" d="M242.783 215.213l-2.417 9.408-3.072 4.201-12.525 5.844 6.311-29.209z"/><path fill="#5A753D" d="M238.7 289.508l52.249-19.039 10.776 38.492zM284.202 189.958l10.18 12.708-11.082 18.533-14.416-25.735z"/><path fill="#BFDB8E" d="M231.08 205.457l4.465-24.225 15.089-6.387 19.865 8.198 9.079 18.563 2.055 6.038 4.891 8.163 7.498 13.092-1.492 20.524-20.696 13.641-16.919-9.691-14.549-28.752-3.79-7.822-1.031-5.154z"/><path fill="#99C26D" d="M270.499 265.154l23.883-12.007-.36-8.034-13.147-7.855-29.779 9.504 2.967 6.124z"/><path fill="#A0CF7E" d="M286.524 215.807l-7.078-14.137-48.366 3.787 5.496 11.342z"/><path fill="#99C26D" d="M250.634 173.632l-15.089 7.6 34.954 1.811z"/><path fill="#F5CAB3" d="M281.266 229.868l5.664-5.251 7.092 4.282-6.855 1.855z"/><path fill="#FFE6D6" d="M233.415 192.788l27.151-14.452 11.77 23.891-27.309 14.572z"/><path fill="#F5CAB3" d="M242.42 198.02l5.049-5.646 4.373-2.189 7.012-1.065-3.901 7.286-4.108 2.131z"/><path fill="#FFF1E8" d="M247.469 192.374l3.376 6.163 4.108-2.131-3.111-6.221z"/><path fill="#709D53" d="M242.42 198.02l2.659-5.702 2.39.056zM251.842 190.185l1.231-1.866 5.781.801z"/><path d="M248.202 198.08c0 1.022-.829 1.85-1.85 1.85-1.022 0-1.852-.827-1.852-1.85 0-1.021.829-1.851 1.852-1.851 1.021 0 1.85.83 1.85 1.851zM259.135 192.214c0 1.021-.828 1.85-1.85 1.85s-1.851-.828-1.851-1.85c0-1.023.829-1.851 1.851-1.851s1.85.829 1.85 1.851z"/><path fill="#DDDDDC" d="M250.845 198.537l3.271.981.837-3.112z"/><path fill="#99C26D" d="M272.336 202.227l-9.606 14.054-17.703.518z"/><path fill="#54B08B" d="M257.069 196.771l-2.321 3.919-4.529-.499-.622 5.673 8.287 1.109 4.094-7.289z"/><path fill="#BFDB8E" d="M257.618 202.663c.416.834.078 1.847-.755 2.262-.835.418-1.848.079-2.264-.756-.416-.833-.077-1.846.756-2.263.833-.414 1.846-.077 2.263.757z"/><path fill="#F5CAB3" d="M239.272 321.353l14.072-4.175 12.971 4.66-14.629 4.901z"/><path fill="#99C26D" d="M266.315 321.838l-6.614 8.367h-15.466l-4.963-8.852 12.429 4.585z"/><path fill="#FFE6D6" d="M281.266 229.868l-7.221 10.891 19.977 4.354.702-4.273-.702-11.941z"/><path fill="#F5CAB3" d="M294.022 228.899v16.214l4.073-3.556 3.105-9.657z"/><path fill="#FFE6D6" d="M322.898 233.465l30.133-8.848 8.266 29.801-15.086 5.691-8.522 7.568-14.658-4.613z"/><path fill="#F5CAB3" d="M330.632 239.704l20.398-7.171-2.933 11.598-5.6 1.865zM337.689 270.486l8.522-10.377-13.047 4.022-10.266-30.666-1.333 31.689z"/><path fill="#C4937D" d="M346.211 260.109l-16.539 5.045 8.017 5.332z"/><path fill="#FFF1E8" d="M338.654 236.883l3.843 9.113 5.6-1.865-3.133-9.465z"/><path fill="#C4937D" d="M342.497 245.996l3.714 1.469 1.886-3.334z"/><path d="M337.689 242.231c0 1.049-.851 1.9-1.901 1.9s-1.9-.851-1.9-1.9.85-1.901 1.9-1.901 1.901.852 1.901 1.901zM351.864 237.332c0 1.047-.851 1.9-1.9 1.9s-1.901-.852-1.901-1.9c0-1.051.852-1.901 1.901-1.901s1.9.851 1.9 1.901z"/><path fill="#B8C745" d="M330.632 239.704l6.132-5.038 1.89 2.217zM344.964 234.666l.333-2.766 5.733.633z"/><path fill="#C4937D" d="M340.831 251.597l10.199-3.51v1.223l-9.599 3.754z"/><path fill="#FFE6D6" d="M313.282 213.424l17.35 2.068-21.758 9.125z"/><path fill="#F5CAB3" d="M330.632 215.492l-1.052 5.898-8.459 5.898-12.247-2.671z"/><path fill="#5A753D" d="M285.279 157.58l8.355-4.933 8.517 1.559-7.875 2.441z"/><path fill="#8AAD64" d="M285.279 157.58l10.238 4 6.634-7.374-7.875 2.441z"/><path fill="#FFF" d="M288.363 157.26l10.859-2.146-4.347 3.933z"/><path fill="#54B08B" d="M321.565 272.171l-5.333 47.025 16.888-23.514 7.711-17.372zM351.03 267.598l-10.199 10.712 7.167 13.687 15.521 19.555z"/><path fill="#3F8F6F" d="M340.831 278.31l-24.599 40.886 47.287-7.644z"/><path fill="#F5CAB3" d="M233.415 192.788l17.222 21.017-5.61 2.994zM260.566 178.336l6.959 26.456 4.811-2.565z"/><path fill="#709D53" d="M224.769 234.666l15.595-10.049 40.902 5.251-1.124 30.241z"/><path fill="#2B2B2B" d="M285.43 134.895c.165 1.447-.875 2.754-2.322 2.918-1.447.165-2.754-.875-2.919-2.322-.165-1.447.875-2.754 2.322-2.919 1.447-.164 2.754.875 2.919 2.323zM300.632 131.936c.165 1.447-.875 2.754-2.322 2.919-1.447.165-2.754-.875-2.918-2.322-.165-1.447.875-2.754 2.322-2.919 1.447-.165 2.754.875 2.918 2.322z"/></g><g fill-rule="evenodd" clip-rule="evenodd"><path opacity=".1" fill="#2B2B2B" d="M376.844 323.728l74.582 17.353 111.73-13.609-86.397-28.369z"/><path fill="#54B08B" d="M483.691 296.363l-75.463 21.766 48.265 13.901 75.996-14.397z"/><path fill="#35785D" d="M400.495 322.396l83.196-26.033v-5.788l-1.599-5.121-33.243 9.209-47.021 16.889.8 6.081z"/><path fill="#3F8F6F" d="M401.828 311.552l2.401-6.427-1.6-6.374 81.062-25.865v7.733l-1.599 4.835z"/><path fill="#72C9A6" d="M402.629 298.751l48.797 18.578 2.222 5.067-2.222 5.688-23.687-5.688-25.911-10.844z"/><path fill="#54B08B" d="M401.828 311.552l49.598 16.532 1.513 7.152-1.513 5.845-50.931-18.685zM483.691 272.886l-1.599 12.568 23.999 14.722 31.466 13.687.711-8.738 3.822-6.374z"/><path fill="#72C9A6" d="M482.092 285.454l1.599 10.909 50.4 28.432-.088-5.599 3.554-5.333z"/><path fill="#3F8F6F" d="M451.426 317.329l90.664-18.578-4.533 15.112-42.132 8.533-43.999 5.688z"/><path fill="#35785D" d="M451.426 341.081l82.665-16.286 3.466-10.932-86.131 14.221z"/></g></svg>